<svg xmlns="http://www.w3.org/2000/svg" width="25" height="24" viewBox="0 0 25 24" fill="none">
  <path d="M3.28996 14.78L3.19996 14.69C2.80996 14.3 2.80996 13.67 3.19996 13.28L9.28996 7.18C9.67996 6.79 10.31 6.79 10.7 7.18L13.99 10.47L20.38 3.29C20.76 2.86 21.43 2.85 21.83 3.25C22.2 3.63 22.22 4.23 21.87 4.62L14.7 12.69C14.32 13.12 13.66 13.14 13.25 12.73L9.99996 9.48L4.69996 14.78C4.31996 15.17 3.67996 15.17 3.28996 14.78ZM4.69996 20.78L9.99996 15.48L13.25 18.73C13.66 19.14 14.32 19.12 14.7 18.69L21.87 10.62C22.22 10.23 22.2 9.63 21.83 9.25C21.43 8.85 20.76 8.86 20.38 9.29L13.99 16.47L10.7 13.18C10.31 12.79 9.67996 12.79 9.28996 13.18L3.19996 19.28C2.80996 19.67 2.80996 20.3 3.19996 20.69L3.28996 20.78C3.67996 21.17 4.31996 21.17 4.69996 20.78Z" fill="white"/>
</svg>
