<svg xmlns="http://www.w3.org/2000/svg" width="25" height="24" viewBox="0 0 25 24" fill="none">
  <path d="M10.1666 14C9.90141 14 9.64706 14.1054 9.45952 14.2929C9.27198 14.4804 9.16663 14.7348 9.16663 15V21C9.16663 21.2652 9.27198 21.5196 9.45952 21.7071C9.64706 21.8946 9.90141 22 10.1666 22C10.4318 22 10.6862 21.8946 10.8737 21.7071C11.0613 21.5196 11.1666 21.2652 11.1666 21V15C11.1666 14.7348 11.0613 14.4804 10.8737 14.2929C10.6862 14.1054 10.4318 14 10.1666 14ZM5.16663 18C4.90141 18 4.64706 18.1054 4.45952 18.2929C4.27198 18.4804 4.16663 18.7348 4.16663 19V21C4.16663 21.2652 4.27198 21.5196 4.45952 21.7071C4.64706 21.8946 4.90141 22 5.16663 22C5.43184 22 5.6862 21.8946 5.87373 21.7071C6.06127 21.5196 6.16663 21.2652 6.16663 21V19C6.16663 18.7348 6.06127 18.4804 5.87373 18.2929C5.6862 18.1054 5.43184 18 5.16663 18ZM20.1666 2C19.9014 2 19.6471 2.10536 19.4595 2.29289C19.272 2.48043 19.1666 2.73478 19.1666 3V21C19.1666 21.2652 19.272 21.5196 19.4595 21.7071C19.6471 21.8946 19.9014 22 20.1666 22C20.4318 22 20.6862 21.8946 20.8737 21.7071C21.0613 21.5196 21.1666 21.2652 21.1666 21V3C21.1666 2.73478 21.0613 2.48043 20.8737 2.29289C20.6862 2.10536 20.4318 2 20.1666 2ZM15.1666 9C14.9014 9 14.6471 9.10536 14.4595 9.29289C14.272 9.48043 14.1666 9.73478 14.1666 10V21C14.1666 21.2652 14.272 21.5196 14.4595 21.7071C14.6471 21.8946 14.9014 22 15.1666 22C15.4318 22 15.6862 21.8946 15.8737 21.7071C16.0613 21.5196 16.1666 21.2652 16.1666 21V10C16.1666 9.73478 16.0613 9.48043 15.8737 9.29289C15.6862 9.10536 15.4318 9 15.1666 9Z" fill="white"/>
</svg>
