<svg xmlns="http://www.w3.org/2000/svg" width="25" height="24" viewBox="0 0 25 24" fill="none">
  <path d="M7.83331 4C7.83331 2.89 6.94331 2 5.83331 2C4.72331 2 3.83331 2.89 3.83331 4C3.83331 5.11 4.72331 6 5.83331 6C6.94331 6 7.83331 5.11 7.83331 4ZM11.0233 4.5C10.6133 4.5 10.2633 4.75 10.1033 5.13C9.66331 6.23 8.59331 7 7.33331 7H4.33331C3.50331 7 2.83331 7.67 2.83331 8.5V11H8.83331V8.74C10.2633 8.29 11.4133 7.21 11.9533 5.83C12.2133 5.19 11.7133 4.5 11.0233 4.5ZM19.8333 17C20.9433 17 21.8333 16.11 21.8333 15C21.8333 13.89 20.9433 13 19.8333 13C18.7233 13 17.8333 13.89 17.8333 15C17.8333 16.11 18.7233 17 19.8333 17ZM21.3333 18H18.3333C17.0733 18 16.0033 17.23 15.5633 16.13C15.4133 15.75 15.0533 15.5 14.6433 15.5C13.9533 15.5 13.4533 16.19 13.7033 16.83C14.2533 18.21 15.3933 19.29 16.8233 19.74V22H22.8233V19.5C22.8333 18.67 22.1633 18 21.3333 18ZM18.0833 11.09C18.0833 11.09 18.0833 11.08 18.0933 11.09C17.0333 11.36 16.1933 12.2 15.9233 13.26V13.25C15.8133 13.68 15.4133 14 14.9433 14C14.3933 14 13.9433 13.55 13.9433 13C13.9433 12.95 13.9633 12.86 13.9633 12.86C14.3933 11.01 15.8533 9.55 17.7133 9.13C17.7533 9.13 17.7933 9.12 17.8333 9.12C18.3833 9.12 18.8333 9.57 18.8333 10.12C18.8333 10.58 18.5133 10.98 18.0833 11.09ZM18.8333 6.06C18.8333 6.57 18.4633 6.98 17.9733 7.05C14.7833 7.44 12.2733 9.96 11.8833 13.15C11.8133 13.63 11.3933 14 10.8933 14C10.3433 14 9.89331 13.55 9.89331 13C9.89331 12.98 9.89331 12.96 9.89331 12.94C9.89331 12.93 9.89331 12.92 9.89331 12.91C10.3933 8.79 13.6833 5.53 17.8133 5.06H17.8233C18.3833 5.06 18.8333 5.51 18.8333 6.06Z" fill="white"/>
</svg>
