<svg xmlns="http://www.w3.org/2000/svg" width="25" height="24" viewBox="0 0 25 24" fill="none">
  <path d="M10.5 13H3.49998C3.23477 13 2.98041 13.1054 2.79288 13.2929C2.60534 13.4804 2.49998 13.7348 2.49998 14V21C2.49998 21.2652 2.60534 21.5196 2.79288 21.7071C2.98041 21.8946 3.23477 22 3.49998 22H10.5C10.7652 22 11.0196 21.8946 11.2071 21.7071C11.3946 21.5196 11.5 21.2652 11.5 21V14C11.5 13.7348 11.3946 13.4804 11.2071 13.2929C11.0196 13.1054 10.7652 13 10.5 13ZM9.49998 20H4.49998V15H9.49998V20ZM21.5 2H14.5C14.2348 2 13.9804 2.10536 13.7929 2.29289C13.6053 2.48043 13.5 2.73478 13.5 3V10C13.5 10.2652 13.6053 10.5196 13.7929 10.7071C13.9804 10.8946 14.2348 11 14.5 11H21.5C21.7652 11 22.0196 10.8946 22.2071 10.7071C22.3946 10.5196 22.5 10.2652 22.5 10V3C22.5 2.73478 22.3946 2.48043 22.2071 2.29289C22.0196 2.10536 21.7652 2 21.5 2ZM20.5 9H15.5V4H20.5V9ZM21.5 13H14.5C14.2348 13 13.9804 13.1054 13.7929 13.2929C13.6053 13.4804 13.5 13.7348 13.5 14V21C13.5 21.2652 13.6053 21.5196 13.7929 21.7071C13.9804 21.8946 14.2348 22 14.5 22H21.5C21.7652 22 22.0196 21.8946 22.2071 21.7071C22.3946 21.5196 22.5 21.2652 22.5 21V14C22.5 13.7348 22.3946 13.4804 22.2071 13.2929C22.0196 13.1054 21.7652 13 21.5 13ZM20.5 20H15.5V15H20.5V20ZM10.5 2H3.49998C3.23477 2 2.98041 2.10536 2.79288 2.29289C2.60534 2.48043 2.49998 2.73478 2.49998 3V10C2.49998 10.2652 2.60534 10.5196 2.79288 10.7071C2.98041 10.8946 3.23477 11 3.49998 11H10.5C10.7652 11 11.0196 10.8946 11.2071 10.7071C11.3946 10.5196 11.5 10.2652 11.5 10V3C11.5 2.73478 11.3946 2.48043 11.2071 2.29289C11.0196 2.10536 10.7652 2 10.5 2ZM9.49998 9H4.49998V4H9.49998V9Z" fill="white"/>
</svg>
