<svg
                  xmlns="http://www.w3.org/2000/svg"
                  width="25"
                  height="24"
                  viewBox="0 0 25 24"
                  fill="none"
                >
                  <path
                    d="M15.8766 12.71C16.857 11.9387 17.5726 10.8809 17.9239 9.68394C18.2751 8.48697 18.2445 7.21027 17.8364 6.03147C17.4283 4.85267 16.6629 3.83039 15.6467 3.10686C14.6305 2.38332 13.4141 1.99451 12.1666 1.99451C10.9192 1.99451 9.70274 2.38332 8.68655 3.10686C7.67037 3.83039 6.90497 4.85267 6.49684 6.03147C6.0887 7.21027 6.05814 8.48697 6.40938 9.68394C6.76063 10.8809 7.47623 11.9387 8.45662 12.71C6.7767 13.383 5.31091 14.4994 4.21552 15.9399C3.12012 17.3805 2.43619 19.0913 2.23662 20.89C2.22218 21.0213 2.23374 21.1542 2.27065 21.2811C2.30756 21.4079 2.36909 21.5263 2.45173 21.6293C2.61864 21.8375 2.86141 21.9708 3.12662 22C3.39184 22.0292 3.65778 21.9518 3.86595 21.7849C4.07411 21.618 4.20745 21.3752 4.23662 21.11C4.45621 19.1552 5.38831 17.3498 6.85484 16.0388C8.32137 14.7278 10.2195 14.003 12.1866 14.003C14.1537 14.003 16.0519 14.7278 17.5184 16.0388C18.9849 17.3498 19.917 19.1552 20.1366 21.11C20.1638 21.3557 20.2811 21.5827 20.4657 21.747C20.6504 21.9114 20.8894 22.0015 21.1366 22H21.2466C21.5088 21.9698 21.7483 21.8373 21.9132 21.6313C22.078 21.4252 22.1547 21.1624 22.1266 20.9C21.9261 19.0962 21.2385 17.381 20.1375 15.9382C19.0364 14.4954 17.5635 13.3795 15.8766 12.71ZM12.1666 12C11.3755 12 10.6021 11.7654 9.94434 11.3259C9.28655 10.8864 8.77385 10.2616 8.4711 9.53074C8.16835 8.79983 8.08914 7.99557 8.24348 7.21964C8.39782 6.44372 8.77879 5.73099 9.3382 5.17158C9.89761 4.61217 10.6103 4.2312 11.3863 4.07686C12.1622 3.92252 12.9665 4.00173 13.6974 4.30448C14.4283 4.60724 15.053 5.11993 15.4925 5.77772C15.932 6.43552 16.1666 7.20888 16.1666 8C16.1666 9.06087 15.7452 10.0783 14.9951 10.8284C14.2449 11.5786 13.2275 12 12.1666 12Z"
                    fill="white"
                  ></path>
                </svg>