<svg xmlns="http://www.w3.org/2000/svg" x="0px" y="0px" width="100" height="100" viewBox="0 0 64 64" style="fill: #1b2559">
  <path d="M 32.376953 7 C 25.650953 7 18.181375 9.5161875 16.609375 17.742188 C 16.441375 18.618188 17.052859 19.067312 17.630859 19.195312 L 24.460938 19.892578 C 25.102937 19.858578 25.614281 19.260906 25.738281 18.628906 C 26.326281 15.794906 28.727922 14.394531 31.419922 14.394531 C 32.873922 14.394531 34.516953 14.940516 35.376953 16.228516 C 36.370953 17.666516 36.207031 19.617203 36.207031 21.283203 L 36.207031 22.232422 C 32.109031 22.688422 26.763641 22.966766 22.931641 24.634766 C 18.503641 26.528766 15.398437 30.392266 15.398438 36.072266 C 15.398438 43.340266 20.044141 47.003906 25.994141 47.003906 C 31.020141 47.003906 33.733281 45.798719 37.613281 41.886719 C 38.895281 43.724719 39.351219 44.630453 41.699219 46.564453 C 42.227219 46.844453 42.891422 46.789047 43.357422 46.373047 L 43.357422 46.4375 C 44.767422 45.1935 47.34125 42.961766 48.78125 41.759766 C 49.35525 41.291766 49.23125 40.561828 48.78125 39.923828 C 47.48925 38.157828 46.164062 36.694062 46.164062 33.414062 L 46.164062 22.544922 C 46.164062 17.926922 46.475109 13.654609 43.037109 10.474609 C 40.323109 7.8986094 35.812953 7 32.376953 7 z M 35.248047 27.835938 C 35.566797 27.841188 35.885078 27.851562 36.205078 27.851562 L 36.205078 29.367188 C 36.207078 32.095187 36.317687 34.337719 34.929688 36.761719 C 33.805687 38.729719 31.997672 39.919922 30.013672 39.919922 C 27.301672 39.919922 25.734375 37.891281 25.734375 34.863281 C 25.734375 29.653281 29.831016 28.141562 34.291016 27.851562 C 34.610016 27.830562 34.929297 27.830687 35.248047 27.835938 z M 54.171875 45.441406 C 52.353875 45.467406 50.22375 45.850422 48.59375 46.982422 C 48.09375 47.330422 48.166656 47.817953 48.722656 47.751953 C 50.556656 47.533953 54.609844 47.021359 55.339844 47.943359 C 56.067844 48.867359 54.533609 52.665281 53.849609 54.363281 C 53.641609 54.875281 54.092547 55.073594 54.560547 54.683594 C 57.612547 52.155594 58.428687 46.912531 57.804688 46.144531 C 57.494687 45.770531 55.991875 45.415406 54.171875 45.441406 z M 6.3671875 46.404297 C 5.9871875 46.454297 5.8363281 46.946688 6.2363281 47.304688 C 13.020328 53.368688 21.967828 57 31.923828 57 C 39.025828 57 47.315859 54.800578 53.005859 50.642578 C 53.945859 49.952578 53.124109 48.888922 52.162109 49.294922 C 45.784109 51.974922 38.815766 53.273437 32.509766 53.273438 C 23.159766 53.273438 14.140266 50.74725 6.8222656 46.53125 C 6.6602656 46.43925 6.4911875 46.388297 6.3671875 46.404297 z"/>
</svg>
