<svg xmlns="http://www.w3.org/2000/svg" x="0px" y="0px" width="100" height="100" viewBox="0 0 64 64" style="fill: #1b2559">
  <path d="M53.5,10h-13l-2,5.5h-3L34,19l-6.5-9H14L3,45l12,11h13l2-8l1,1.5h4l5.5,6.5h13L60,23L53.5,10z M39,19h1h1.5h2l-1.14,3.04	l-4.569,0.286L39,19z M16.979,14h6.87l-0.635,2.223l-7.198,0.576L16.979,14z M17.5,43H7l3.518-10.224L13,32.5L10,41h8.192L17.5,43z M19.045,38.538L13.5,39l1-3h5.423L19.045,38.538z M43.97,43H33l3.874-13H33.47L31,36.5h-8l2.28-6.5H22l-1.217,3.517l-5.598,0.431	L16.5,30h-5.027l3.785-11h7.162l-0.571,2H25l-1,3.5h10h3h11.455L43.97,43z M49.154,21.615l-3.827,0.239L47,16h-4.354l0.764-2H51	L49.154,21.615z"/>
</svg>
