<svg xmlns="http://www.w3.org/2000/svg" width="155" height="65" viewBox="0 0 184 65" fill="none">
  <path d="M20.2765 64.8827C14.7995 64.6671 10.3185 63.1822 6.81467 60.4243C6.14599 59.8975 4.55259 58.3178 4.01802 57.6515C2.59718 55.8814 1.6312 54.1586 0.986896 52.2472C-0.995712 46.3634 0.0246651 38.6425 3.90547 30.1689C7.22826 22.9145 12.3555 15.7196 21.3007 5.75465C22.6183 4.28833 26.5423 0 26.5676 0C26.577 0 26.3631 0.367039 26.094 0.813998C23.7681 4.67396 21.778 9.22062 20.6939 13.1568C18.9523 19.4727 19.1624 24.8928 21.3091 29.0957C22.79 31.9911 25.3287 34.4991 28.1835 35.8855C33.1813 38.3117 40.4984 38.5124 49.4342 36.4728C50.0494 36.3315 80.535 28.3133 117.18 18.6541C153.826 8.99389 183.814 1.09648 183.818 1.10298C183.828 1.11136 98.6805 37.2115 54.4788 55.9399C47.4788 58.905 45.6068 59.654 42.3159 60.7988C33.9034 63.7258 26.3678 65.1224 20.2765 64.8827Z" fill="#1B2559"/>
</svg>
